# xmcd
#
# Track frame offsets:
#	150
#	17560
#	37707
#	51841
#	68381
#	83430
#	101170
#	123535
#	140423
#	163807
#	177266
#	188774
#	210212
#	222759
#	242549
#	260471
#
# Disc length: 3687 seconds
#
# Revision: 0
# Processed by: cddbd v1.5.2PL0 Copyright (c) Steve Scherf et al.
# Submitted via: EasyCDDAExtractor 9.1.0.1
#
DISCID=ca0e6510
DTITLE=Various Artist - ΑΠΟ ΑΛΛΑ ΠΕΡΙΒΟΛΙΑ [CD 2)
DYEAR=2008
DGENRE=ΕΝΤΕΧΝΟ
TTITLE0=ΘΑΛΑΣΣΙΝΟΣ - ΤΟ ΕΡΗΝΑΚΙ
TTITLE1=ΘΑΛΑΣΣΙΝΟΣ - ΜΗΝ ΠΕΙΣ ΞΑΝΑ ΠΩΣ Μ' ΑΓΑΠΑΣ
TTITLE2=ΘΑΛΑΣΣΙΝΟΣ - ΦΕΓΓΑΡΙΑ ΑΠΟ ΧΑΡΤΟΝΙ
TTITLE3=ΘΑΛΑΣΣΙΝΟΣ - ΜΟΝΑΧΑ ΟΙ ΝΥΧΤΕΣ
TTITLE4=ΘΑΛΑΣΣΙΝΟΣ and ΝΙΚΟΣ ΞΥΔΑΚΗΣ - ΜΕΤΑΞΩΤΗ ΑΓΑΠΗ
TTITLE5=ΘΑΛΑΣΣΙΝΟΣ - ΒΟΛΤΑ
TTITLE6=ΘΑΛΑΣΣΙΝΟΣ - ΣΤΟ ΠΑΖΑΡΙ ΤΟΥ ΕΡΩΤΑ
TTITLE7=ΘΑΛΑΣΣΙΝΟΣ - ΚΟΧΥΛΙ
TTITLE8=ΘΑΛΑΣΣΙΝΟΣ - ΠΙΚΡΟΘΑΛΑΣΣΑ
TTITLE9=ΘΑΛΑΣΣΙΝΟΣ - ΣΤΟ ΚΑΣΤΡΟ ΤΗΣ ΑΣΤΥΠΑΛΙΑΣ
TTITLE10=ΘΑΛΑΣΣΙΝΟΣ - Η ΝΟΤΙΑ
TTITLE11=ΘΑΛΑΣΣΙΝΟΣ - ΚΟΝΤΥΛΙΕΣ ΤΗΣ ΑΥΓΗΣ
TTITLE12=ΘΑΛΑΣΣΙΝΟΣ and ΑΝΔΡΕΑΣ ΚΑΡΑΚΟΤΑΣ - ΑΠΟ ΤΗ ΓΥΝΑΙΚΑ ΓΙΑ ΤΗ ΓΥΝΑΙΚΑ
TTITLE13=ΘΑΛΑΣΣΙΝΟΣ - ΟΙ ΝΥΧΤΕΣ ΜΟΥ ΓΥΡΕΥΟΥΝΕ ΧΟΡΟ
TTITLE14=ΘΑΛΑΣΣΙΝΟΣ - ΜΑΡΑΜΕΝΟ ΛΟΥΛΟΥΔΙ
TTITLE15=ΘΑΛΑΣΣΙΝΟΣ - ΑΠΟΧΑΙΡΕΤΙΣΜΟΣ
EXTD=
EXTT0=
EXTT1=
EXTT2=
EXTT3=
EXTT4=
EXTT5=
EXTT6=
EXTT7=
EXTT8=
EXTT9=
EXTT10=
EXTT11=
EXTT12=
EXTT13=
EXTT14=
EXTT15=
PLAYORDER=
